<svg xmlns="http://www.w3.org/2000/svg" xmlns:xlink="http://www.w3.org/1999/xlink" width="500" zoomAndPan="magnify" viewBox="0 0 375 374.999991" height="500" preserveAspectRatio="xMidYMid meet" version="1.0"><defs><g/><clipPath id="df876b1c75"><path d="M 95 199 L 308 199 L 308 262 L 95 262 Z M 95 199 " clip-rule="nonzero"/></clipPath><clipPath id="262ac1efd4"><path d="M 100.949219 181.0625 L 313.742188 222.285156 L 303.902344 273.089844 L 91.105469 231.871094 Z M 100.949219 181.0625 " clip-rule="nonzero"/></clipPath><clipPath id="f3df9faec9"><path d="M 100.949219 181.0625 L 313.742188 222.285156 L 303.902344 273.089844 L 91.105469 231.871094 Z M 100.949219 181.0625 " clip-rule="nonzero"/></clipPath><clipPath id="4f5e5e00b0"><path d="M 206 222 L 314 222 L 314 249 L 206 249 Z M 206 222 " clip-rule="nonzero"/></clipPath><clipPath id="cb1d076ddb"><path d="M 100.949219 181.0625 L 313.742188 222.285156 L 303.902344 273.089844 L 91.105469 231.871094 Z M 100.949219 181.0625 " clip-rule="nonzero"/></clipPath><clipPath id="f5c1c81842"><path d="M 100.949219 181.0625 L 313.742188 222.285156 L 303.902344 273.089844 L 91.105469 231.871094 Z M 100.949219 181.0625 " clip-rule="nonzero"/></clipPath><clipPath id="1eaa4fc384"><path d="M 100 212 L 170 212 L 170 245 L 100 245 Z M 100 212 " clip-rule="nonzero"/></clipPath><clipPath id="91731fc2ce"><path d="M 100.949219 181.0625 L 313.742188 222.285156 L 303.902344 273.089844 L 91.105469 231.871094 Z M 100.949219 181.0625 " clip-rule="nonzero"/></clipPath><clipPath id="e3fdfc98a4"><path d="M 100.949219 181.0625 L 313.742188 222.285156 L 303.902344 273.089844 L 91.105469 231.871094 Z M 100.949219 181.0625 " clip-rule="nonzero"/></clipPath></defs><g fill="#088dd2" fill-opacity="1"><g transform="translate(49.746095, 194.561339)"><g><path d="M 18 0 L 14.640625 0 L 10.125 -10.28125 C 9.988281 -10.570312 9.816406 -10.96875 9.609375 -11.46875 C 9.410156 -11.976562 9.191406 -12.539062 8.953125 -13.15625 C 8.710938 -13.769531 8.457031 -14.414062 8.1875 -15.09375 C 7.925781 -15.78125 7.675781 -16.46875 7.4375 -17.15625 C 7.4375 -16.46875 7.429688 -15.78125 7.421875 -15.09375 C 7.410156 -14.414062 7.390625 -13.773438 7.359375 -13.171875 C 7.328125 -12.578125 7.304688 -12.046875 7.296875 -11.578125 C 7.285156 -11.109375 7.28125 -10.742188 7.28125 -10.484375 L 6.875 0 L 2.40625 0 L 4 -27.15625 L 7.71875 -27.15625 L 14.5625 -10.203125 C 14.800781 -9.585938 15.070312 -8.921875 15.375 -8.203125 C 15.6875 -7.484375 15.972656 -6.773438 16.234375 -6.078125 C 16.503906 -6.773438 16.785156 -7.472656 17.078125 -8.171875 C 17.367188 -8.878906 17.648438 -9.554688 17.921875 -10.203125 L 24.796875 -27.15625 L 28.4375 -27.15625 L 30.046875 0 L 25.59375 0 L 25.15625 -10.359375 C 25.132812 -11.023438 25.101562 -11.976562 25.0625 -13.21875 C 25.019531 -14.457031 24.984375 -15.71875 24.953125 -17 C 24.710938 -16.332031 24.46875 -15.664062 24.21875 -15 C 23.96875 -14.332031 23.734375 -13.703125 23.515625 -13.109375 C 23.304688 -12.523438 23.109375 -11.992188 22.921875 -11.515625 C 22.734375 -11.035156 22.585938 -10.664062 22.484375 -10.40625 Z M 18 0 "/></g></g></g><g fill="#088dd2" fill-opacity="1"><g transform="translate(82.182872, 194.561339)"><g><path d="M 10.203125 -27.078125 L 13.953125 -27.078125 L 24.40625 0 L 19.3125 0 L 16.84375 -7.078125 L 7.078125 -7.078125 L 4.515625 0 L -0.203125 0 Z M 15.59375 -10.59375 C 14.738281 -13 14.003906 -15.179688 13.390625 -17.140625 C 12.785156 -19.097656 12.320312 -20.640625 12 -21.765625 C 11.625 -20.554688 11.128906 -18.976562 10.515625 -17.03125 C 9.898438 -15.09375 9.179688 -12.945312 8.359375 -10.59375 Z M 15.59375 -10.59375 "/></g></g></g><g fill="#088dd2" fill-opacity="1"><g transform="translate(106.380464, 194.561339)"><g><path d="M 2.796875 -27.078125 L 7.5625 -27.078125 L 7.5625 0 L 2.796875 0 Z M 21.5625 -27.078125 C 21.132812 -25.078125 20.660156 -23.375 20.140625 -21.96875 C 19.617188 -20.570312 19.050781 -19.382812 18.4375 -18.40625 C 17.820312 -17.4375 17.144531 -16.613281 16.40625 -15.9375 C 15.675781 -15.257812 14.898438 -14.640625 14.078125 -14.078125 L 23.921875 0 L 18.40625 0 L 8.078125 -14.640625 L 8.078125 -14.921875 C 10.535156 -15.828125 12.4375 -17.3125 13.78125 -19.375 C 15.125 -21.445312 16.15625 -24.015625 16.875 -27.078125 Z M 21.5625 -27.078125 "/></g></g></g><g fill="#088dd2" fill-opacity="1"><g transform="translate(130.018119, 194.561339)"><g><path d="M 2.796875 -27.078125 L 18.875 -27.078125 L 18.875 -23.484375 L 7.5625 -23.484375 L 7.5625 -15.921875 L 16.875 -15.921875 L 16.28125 -12.28125 L 7.5625 -12.28125 L 7.5625 -3.59375 L 19.484375 -3.59375 L 19.484375 0 L 2.796875 0 Z M 2.796875 -27.078125 "/></g></g></g><g fill="#088dd2" fill-opacity="1"><g transform="translate(150.536082, 194.561339)"><g/></g></g><g fill="#088dd2" fill-opacity="1"><g transform="translate(160.735067, 194.561339)"><g><path d="M 10.203125 -27.078125 L 13.953125 -27.078125 L 24.40625 0 L 19.3125 0 L 16.84375 -7.078125 L 7.078125 -7.078125 L 4.515625 0 L -0.203125 0 Z M 15.59375 -10.59375 C 14.738281 -13 14.003906 -15.179688 13.390625 -17.140625 C 12.785156 -19.097656 12.320312 -20.640625 12 -21.765625 C 11.625 -20.554688 11.128906 -18.976562 10.515625 -17.03125 C 9.898438 -15.09375 9.179688 -12.945312 8.359375 -10.59375 Z M 15.59375 -10.59375 "/></g></g></g><g fill="#088dd2" fill-opacity="1"><g transform="translate(184.932659, 194.561339)"><g/></g></g><g fill="#088dd2" fill-opacity="1"><g transform="translate(195.131645, 194.561339)"><g><path d="M 10.59375 -27.4375 C 11.53125 -27.4375 12.425781 -27.347656 13.28125 -27.171875 C 14.132812 -27.003906 14.914062 -26.804688 15.625 -26.578125 C 16.332031 -26.347656 16.929688 -26.113281 17.421875 -25.875 C 17.910156 -25.632812 18.25 -25.445312 18.4375 -25.3125 L 16.484375 -21.875 L 15.953125 -22.15625 C 15.609375 -22.34375 15.15625 -22.554688 14.59375 -22.796875 C 14.039062 -23.035156 13.429688 -23.25 12.765625 -23.4375 C 12.097656 -23.625 11.457031 -23.71875 10.84375 -23.71875 C 9.882812 -23.71875 9.050781 -23.488281 8.34375 -23.03125 C 7.632812 -22.582031 7.28125 -21.878906 7.28125 -20.921875 C 7.28125 -19.722656 7.664062 -18.742188 8.4375 -17.984375 C 9.207031 -17.222656 10.421875 -16.519531 12.078125 -15.875 C 13.148438 -15.445312 14.101562 -15 14.9375 -14.53125 C 15.78125 -14.070312 16.492188 -13.535156 17.078125 -12.921875 C 17.660156 -12.304688 18.101562 -11.597656 18.40625 -10.796875 C 18.71875 -9.992188 18.875 -9.035156 18.875 -7.921875 C 18.875 -6.910156 18.679688 -5.910156 18.296875 -4.921875 C 17.910156 -3.929688 17.335938 -3.054688 16.578125 -2.296875 C 15.816406 -1.535156 14.875 -0.921875 13.75 -0.453125 C 12.632812 0.00390625 11.34375 0.234375 9.875 0.234375 C 8.832031 0.234375 7.84375 0.128906 6.90625 -0.078125 C 5.976562 -0.296875 5.132812 -0.539062 4.375 -0.8125 C 3.613281 -1.09375 2.957031 -1.378906 2.40625 -1.671875 C 1.863281 -1.972656 1.460938 -2.203125 1.203125 -2.359375 L 2.875 -6.046875 L 3.59375 -5.640625 C 4.070312 -5.367188 4.660156 -5.070312 5.359375 -4.75 C 6.054688 -4.4375 6.789062 -4.144531 7.5625 -3.875 C 8.332031 -3.613281 9 -3.484375 9.5625 -3.484375 C 10.976562 -3.484375 12.03125 -3.828125 12.71875 -4.515625 C 13.414062 -5.210938 13.765625 -6.1875 13.765625 -7.4375 C 13.765625 -8.019531 13.671875 -8.53125 13.484375 -8.96875 C 13.296875 -9.414062 13.023438 -9.796875 12.671875 -10.109375 C 12.328125 -10.429688 11.910156 -10.71875 11.421875 -10.96875 C 10.929688 -11.226562 10.378906 -11.476562 9.765625 -11.71875 C 8.554688 -12.226562 7.476562 -12.734375 6.53125 -13.234375 C 5.59375 -13.742188 4.789062 -14.320312 4.125 -14.96875 C 3.457031 -15.625 2.945312 -16.375 2.59375 -17.21875 C 2.25 -18.0625 2.078125 -19.066406 2.078125 -20.234375 C 2.078125 -21.222656 2.289062 -22.148438 2.71875 -23.015625 C 3.144531 -23.878906 3.726562 -24.640625 4.46875 -25.296875 C 5.21875 -25.953125 6.113281 -26.472656 7.15625 -26.859375 C 8.195312 -27.242188 9.34375 -27.4375 10.59375 -27.4375 Z M 10.59375 -27.4375 "/></g></g></g><g fill="#088dd2" fill-opacity="1"><g transform="translate(215.409624, 194.561339)"><g><path d="M 2.796875 -27.078125 C 2.984375 -27.078125 3.410156 -27.082031 4.078125 -27.09375 C 4.742188 -27.113281 5.488281 -27.125 6.3125 -27.125 C 7.144531 -27.125 7.972656 -27.128906 8.796875 -27.140625 C 9.628906 -27.148438 10.3125 -27.15625 10.84375 -27.15625 C 14.09375 -27.15625 16.488281 -26.425781 18.03125 -24.96875 C 19.582031 -23.519531 20.359375 -21.53125 20.359375 -19 C 20.359375 -17.769531 20.144531 -16.640625 19.71875 -15.609375 C 19.289062 -14.585938 18.65625 -13.703125 17.8125 -12.953125 C 16.976562 -12.210938 15.941406 -11.632812 14.703125 -11.21875 C 13.460938 -10.800781 12.015625 -10.59375 10.359375 -10.59375 L 7.5625 -10.59375 L 7.5625 0 L 2.796875 0 Z M 7.5625 -14.15625 L 10.640625 -14.15625 C 12.316406 -14.15625 13.515625 -14.59375 14.234375 -15.46875 C 14.953125 -16.351562 15.3125 -17.476562 15.3125 -18.84375 C 15.3125 -19.457031 15.234375 -20.054688 15.078125 -20.640625 C 14.921875 -21.222656 14.648438 -21.75 14.265625 -22.21875 C 13.878906 -22.6875 13.359375 -23.0625 12.703125 -23.34375 C 12.046875 -23.625 11.222656 -23.765625 10.234375 -23.765625 C 9.648438 -23.765625 9.140625 -23.765625 8.703125 -23.765625 C 8.265625 -23.765625 7.882812 -23.75 7.5625 -23.71875 Z M 7.5625 -14.15625 "/></g></g></g><g fill="#088dd2" fill-opacity="1"><g transform="translate(236.807499, 194.561339)"><g><path d="M 2.796875 -27.078125 L 7.5625 -27.078125 L 7.5625 -3.59375 L 17.6875 -3.59375 L 17.6875 0 L 2.796875 0 Z M 2.796875 -27.078125 "/></g></g></g><g fill="#088dd2" fill-opacity="1"><g transform="translate(254.485736, 194.561339)"><g><path d="M 10.203125 -27.078125 L 13.953125 -27.078125 L 24.40625 0 L 19.3125 0 L 16.84375 -7.078125 L 7.078125 -7.078125 L 4.515625 0 L -0.203125 0 Z M 15.59375 -10.59375 C 14.738281 -13 14.003906 -15.179688 13.390625 -17.140625 C 12.785156 -19.097656 12.320312 -20.640625 12 -21.765625 C 11.625 -20.554688 11.128906 -18.976562 10.515625 -17.03125 C 9.898438 -15.09375 9.179688 -12.945312 8.359375 -10.59375 Z M 15.59375 -10.59375 "/></g></g></g><g fill="#088dd2" fill-opacity="1"><g transform="translate(278.683351, 194.561339)"><g><path d="M 10.59375 -27.4375 C 11.53125 -27.4375 12.425781 -27.347656 13.28125 -27.171875 C 14.132812 -27.003906 14.914062 -26.804688 15.625 -26.578125 C 16.332031 -26.347656 16.929688 -26.113281 17.421875 -25.875 C 17.910156 -25.632812 18.25 -25.445312 18.4375 -25.3125 L 16.484375 -21.875 L 15.953125 -22.15625 C 15.609375 -22.34375 15.15625 -22.554688 14.59375 -22.796875 C 14.039062 -23.035156 13.429688 -23.25 12.765625 -23.4375 C 12.097656 -23.625 11.457031 -23.71875 10.84375 -23.71875 C 9.882812 -23.71875 9.050781 -23.488281 8.34375 -23.03125 C 7.632812 -22.582031 7.28125 -21.878906 7.28125 -20.921875 C 7.28125 -19.722656 7.664062 -18.742188 8.4375 -17.984375 C 9.207031 -17.222656 10.421875 -16.519531 12.078125 -15.875 C 13.148438 -15.445312 14.101562 -15 14.9375 -14.53125 C 15.78125 -14.070312 16.492188 -13.535156 17.078125 -12.921875 C 17.660156 -12.304688 18.101562 -11.597656 18.40625 -10.796875 C 18.71875 -9.992188 18.875 -9.035156 18.875 -7.921875 C 18.875 -6.910156 18.679688 -5.910156 18.296875 -4.921875 C 17.910156 -3.929688 17.335938 -3.054688 16.578125 -2.296875 C 15.816406 -1.535156 14.875 -0.921875 13.75 -0.453125 C 12.632812 0.00390625 11.34375 0.234375 9.875 0.234375 C 8.832031 0.234375 7.84375 0.128906 6.90625 -0.078125 C 5.976562 -0.296875 5.132812 -0.539062 4.375 -0.8125 C 3.613281 -1.09375 2.957031 -1.378906 2.40625 -1.671875 C 1.863281 -1.972656 1.460938 -2.203125 1.203125 -2.359375 L 2.875 -6.046875 L 3.59375 -5.640625 C 4.070312 -5.367188 4.660156 -5.070312 5.359375 -4.75 C 6.054688 -4.4375 6.789062 -4.144531 7.5625 -3.875 C 8.332031 -3.613281 9 -3.484375 9.5625 -3.484375 C 10.976562 -3.484375 12.03125 -3.828125 12.71875 -4.515625 C 13.414062 -5.210938 13.765625 -6.1875 13.765625 -7.4375 C 13.765625 -8.019531 13.671875 -8.53125 13.484375 -8.96875 C 13.296875 -9.414062 13.023438 -9.796875 12.671875 -10.109375 C 12.328125 -10.429688 11.910156 -10.71875 11.421875 -10.96875 C 10.929688 -11.226562 10.378906 -11.476562 9.765625 -11.71875 C 8.554688 -12.226562 7.476562 -12.734375 6.53125 -13.234375 C 5.59375 -13.742188 4.789062 -14.320312 4.125 -14.96875 C 3.457031 -15.625 2.945312 -16.375 2.59375 -17.21875 C 2.25 -18.0625 2.078125 -19.066406 2.078125 -20.234375 C 2.078125 -21.222656 2.289062 -22.148438 2.71875 -23.015625 C 3.144531 -23.878906 3.726562 -24.640625 4.46875 -25.296875 C 5.21875 -25.953125 6.113281 -26.472656 7.15625 -26.859375 C 8.195312 -27.242188 9.34375 -27.4375 10.59375 -27.4375 Z M 10.59375 -27.4375 "/></g></g></g><g fill="#088dd2" fill-opacity="1"><g transform="translate(298.961319, 194.561339)"><g><path d="M 18.71875 -12.3125 L 7.5625 -12.3125 L 7.5625 0 L 2.796875 0 L 2.796875 -27.078125 L 7.5625 -27.078125 L 7.5625 -15.796875 L 18.71875 -15.796875 L 18.71875 -27.078125 L 23.484375 -27.078125 L 23.484375 0 L 18.71875 0 Z M 18.71875 -12.3125 "/></g></g></g><g clip-path="url(#df876b1c75)"><g clip-path="url(#262ac1efd4)"><g clip-path="url(#f3df9faec9)"><path fill="#00adef" d="M 95.050781 211.621094 C 95.050781 211.621094 95.164062 211.425781 95.375 211.042969 C 95.484375 210.851562 95.613281 210.613281 95.777344 210.332031 C 95.953125 210.054688 96.160156 209.742188 96.398438 209.378906 C 96.515625 209.195312 96.65625 209.015625 96.796875 208.820312 C 96.945312 208.628906 97.097656 208.425781 97.253906 208.210938 C 97.296875 208.160156 97.335938 208.105469 97.378906 208.050781 C 97.421875 208 97.46875 207.949219 97.511719 207.894531 C 97.605469 207.789062 97.699219 207.683594 97.792969 207.570312 C 97.890625 207.460938 97.984375 207.347656 98.085938 207.234375 C 98.183594 207.117188 98.289062 207 98.402344 206.890625 C 99.265625 205.960938 100.375 204.984375 101.75 204.046875 C 103.125 203.105469 104.785156 202.234375 106.699219 201.554688 C 108.613281 200.871094 110.777344 200.367188 113.105469 200.136719 C 113.394531 200.105469 113.6875 200.078125 113.984375 200.046875 C 114.28125 200.023438 114.578125 200.011719 114.878906 199.992188 C 115.484375 199.949219 116.09375 199.949219 116.710938 199.9375 C 117.023438 199.929688 117.332031 199.941406 117.648438 199.945312 C 117.960938 199.953125 118.277344 199.953125 118.59375 199.964844 C 118.910156 199.984375 119.230469 200 119.550781 200.019531 C 119.710938 200.027344 119.871094 200.039062 120.03125 200.046875 C 120.191406 200.0625 120.355469 200.074219 120.515625 200.089844 C 123.109375 200.300781 125.800781 200.730469 128.546875 201.355469 C 134.054688 202.59375 139.796875 204.589844 145.632812 207.09375 C 151.472656 209.597656 157.414062 212.628906 163.382812 215.964844 C 164.875 216.800781 166.375 217.648438 167.867188 218.515625 C 169.351562 219.386719 170.847656 220.261719 172.351562 221.144531 C 173.847656 222.03125 175.339844 222.917969 176.828125 223.789062 C 177.574219 224.222656 178.3125 224.652344 179.046875 225.074219 C 179.808594 225.503906 180.570312 225.933594 181.335938 226.363281 C 182.886719 227.242188 184.394531 228.074219 185.925781 228.925781 C 186.6875 229.355469 187.46875 229.765625 188.238281 230.183594 C 189.011719 230.605469 189.785156 231.027344 190.558594 231.449219 C 191.335938 231.859375 192.117188 232.269531 192.894531 232.683594 L 194.0625 233.300781 L 195.238281 233.902344 C 196.023438 234.308594 196.804688 234.710938 197.589844 235.113281 C 198.371094 235.515625 199.164062 235.894531 199.953125 236.289062 L 201.132812 236.875 L 201.722656 237.171875 L 202.316406 237.453125 C 203.109375 237.832031 203.902344 238.207031 204.691406 238.585938 C 205.089844 238.769531 205.480469 238.96875 205.878906 239.144531 L 207.074219 239.6875 C 207.867188 240.050781 208.664062 240.414062 209.457031 240.777344 C 210.257812 241.121094 211.054688 241.464844 211.851562 241.808594 C 212.25 241.980469 212.648438 242.15625 213.046875 242.328125 C 213.445312 242.507812 213.847656 242.660156 214.246094 242.824219 C 215.046875 243.152344 215.847656 243.476562 216.644531 243.804688 L 217.242188 244.046875 L 217.84375 244.277344 C 218.242188 244.429688 218.644531 244.582031 219.042969 244.734375 C 219.847656 245.039062 220.640625 245.355469 221.441406 245.648438 C 222.246094 245.933594 223.046875 246.214844 223.847656 246.496094 C 224.246094 246.640625 224.644531 246.78125 225.042969 246.925781 C 225.441406 247.0625 225.84375 247.1875 226.242188 247.320312 C 227.042969 247.578125 227.84375 247.839844 228.640625 248.101562 C 229.035156 248.234375 229.4375 248.351562 229.835938 248.46875 C 230.234375 248.585938 230.636719 248.707031 231.035156 248.824219 C 231.429688 248.941406 231.828125 249.058594 232.226562 249.175781 L 232.820312 249.355469 L 233.117188 249.441406 L 233.417969 249.519531 C 234.214844 249.730469 235.007812 249.941406 235.796875 250.148438 C 236.191406 250.253906 236.589844 250.359375 236.980469 250.464844 C 237.378906 250.570312 237.773438 250.652344 238.167969 250.742188 C 238.960938 250.925781 239.746094 251.109375 240.527344 251.289062 C 240.722656 251.335938 240.921875 251.382812 241.117188 251.429688 L 241.1875 251.445312 C 241.222656 251.453125 241.152344 251.441406 241.21875 251.453125 L 241.371094 251.484375 L 241.679688 251.546875 C 242.085938 251.632812 242.492188 251.714844 242.898438 251.796875 C 243.3125 251.886719 243.683594 251.953125 244.0625 252.023438 C 244.445312 252.09375 244.824219 252.164062 245.199219 252.234375 C 245.96875 252.371094 246.746094 252.5 247.511719 252.628906 C 248.28125 252.738281 249.046875 252.863281 249.8125 252.964844 C 250.191406 253.015625 250.574219 253.066406 250.953125 253.113281 C 251.144531 253.140625 251.335938 253.164062 251.523438 253.191406 C 251.714844 253.210938 251.902344 253.234375 252.089844 253.253906 C 252.847656 253.339844 253.601562 253.433594 254.351562 253.496094 C 254.726562 253.53125 255.097656 253.5625 255.472656 253.597656 C 255.84375 253.640625 256.214844 253.65625 256.585938 253.6875 C 262.515625 254.140625 268.171875 254.085938 273.371094 253.640625 C 275.972656 253.421875 278.460938 253.109375 280.820312 252.71875 C 283.175781 252.324219 285.398438 251.855469 287.480469 251.351562 C 289.5625 250.847656 291.488281 250.273438 293.269531 249.71875 C 295.039062 249.128906 296.664062 248.5625 298.109375 247.984375 C 298.472656 247.84375 298.824219 247.703125 299.167969 247.566406 C 299.507812 247.425781 299.835938 247.28125 300.15625 247.144531 C 300.476562 247.011719 300.789062 246.878906 301.089844 246.75 C 301.390625 246.625 301.671875 246.484375 301.949219 246.363281 C 302.226562 246.234375 302.496094 246.113281 302.75 245.996094 C 302.878906 245.9375 303.003906 245.878906 303.125 245.824219 C 303.25 245.761719 303.367188 245.707031 303.484375 245.648438 C 303.953125 245.421875 304.375 245.214844 304.753906 245.03125 C 305.136719 244.851562 305.460938 244.671875 305.75 244.523438 C 306.039062 244.375 306.28125 244.25 306.472656 244.148438 C 306.863281 243.949219 307.066406 243.847656 307.066406 243.847656 C 307.066406 243.847656 306.898438 243.996094 306.570312 244.289062 C 306.40625 244.433594 306.199219 244.613281 305.957031 244.828125 C 305.710938 245.042969 305.429688 245.296875 305.097656 245.558594 C 304.765625 245.828125 304.394531 246.128906 303.988281 246.460938 C 303.789062 246.628906 303.566406 246.789062 303.335938 246.960938 C 303.109375 247.132812 302.871094 247.3125 302.621094 247.5 C 302.371094 247.683594 302.117188 247.882812 301.84375 248.074219 C 301.570312 248.265625 301.289062 248.460938 300.996094 248.667969 C 300.703125 248.867188 300.398438 249.078125 300.085938 249.289062 C 299.765625 249.496094 299.441406 249.707031 299.101562 249.925781 C 297.757812 250.804688 296.214844 251.695312 294.507812 252.621094 C 294.074219 252.847656 293.632812 253.074219 293.183594 253.304688 C 292.957031 253.417969 292.730469 253.535156 292.5 253.652344 C 292.265625 253.761719 292.03125 253.875 291.792969 253.984375 C 291.316406 254.207031 290.835938 254.445312 290.339844 254.667969 C 289.835938 254.886719 289.328125 255.105469 288.8125 255.332031 C 286.730469 256.207031 284.476562 257.050781 282.054688 257.824219 C 279.632812 258.59375 277.042969 259.277344 274.308594 259.859375 C 268.839844 261.027344 262.785156 261.757812 256.355469 261.855469 C 255.550781 261.875 254.742188 261.871094 253.925781 261.863281 C 253.109375 261.867188 252.292969 261.835938 251.464844 261.8125 C 251.257812 261.808594 251.050781 261.800781 250.847656 261.796875 C 250.640625 261.785156 250.433594 261.777344 250.226562 261.765625 C 249.808594 261.746094 249.394531 261.726562 248.976562 261.703125 C 248.140625 261.660156 247.304688 261.589844 246.460938 261.527344 C 245.617188 261.453125 244.773438 261.375 243.917969 261.292969 C 243.484375 261.242188 243.050781 261.191406 242.617188 261.140625 C 242.183594 261.089844 241.734375 261.039062 241.332031 260.980469 C 240.921875 260.925781 240.511719 260.867188 240.101562 260.8125 L 239.789062 260.769531 L 239.632812 260.75 C 239.648438 260.753906 239.527344 260.730469 239.511719 260.726562 L 239.429688 260.714844 C 239.214844 260.679688 239.003906 260.644531 238.789062 260.609375 C 237.933594 260.464844 237.070312 260.320312 236.210938 260.171875 C 229.300781 258.96875 222.3125 257.054688 215.417969 254.632812 C 211.960938 253.4375 208.550781 252.070312 205.15625 250.640625 C 201.78125 249.175781 198.425781 247.644531 195.136719 246 C 191.839844 244.375 188.605469 242.648438 185.410156 240.890625 C 183.820312 240 182.242188 239.113281 180.671875 238.195312 C 179.109375 237.277344 177.519531 236.367188 176.023438 235.445312 C 175.257812 234.984375 174.496094 234.519531 173.734375 234.058594 C 172.957031 233.578125 172.183594 233.105469 171.433594 232.621094 C 169.925781 231.660156 168.457031 230.703125 167.003906 229.757812 C 164.101562 227.855469 161.257812 226.003906 158.453125 224.207031 C 152.851562 220.617188 147.390625 217.292969 142.09375 214.421875 C 136.800781 211.550781 131.671875 209.125 126.808594 207.367188 C 125.59375 206.917969 124.390625 206.539062 123.214844 206.171875 C 122.625 206.007812 122.042969 205.824219 121.460938 205.683594 C 121.171875 205.605469 120.882812 205.53125 120.597656 205.457031 C 120.308594 205.390625 120.023438 205.324219 119.742188 205.257812 C 117.46875 204.726562 115.289062 204.421875 113.234375 204.304688 C 113.105469 204.296875 112.976562 204.289062 112.851562 204.28125 C 112.722656 204.28125 112.597656 204.277344 112.472656 204.273438 C 112.21875 204.269531 111.96875 204.265625 111.71875 204.261719 C 111.472656 204.253906 111.226562 204.269531 110.984375 204.269531 C 110.738281 204.277344 110.496094 204.273438 110.257812 204.292969 C 110.019531 204.308594 109.78125 204.324219 109.546875 204.34375 C 109.429688 204.351562 109.3125 204.359375 109.195312 204.367188 C 109.082031 204.378906 108.964844 204.394531 108.851562 204.40625 C 108.621094 204.433594 108.394531 204.460938 108.171875 204.484375 L 108 204.503906 L 107.835938 204.535156 C 107.726562 204.550781 107.617188 204.570312 107.507812 204.589844 C 105.753906 204.882812 104.175781 205.359375 102.796875 205.941406 C 102.625 206.015625 102.449219 206.085938 102.285156 206.160156 C 102.121094 206.238281 101.960938 206.320312 101.800781 206.398438 C 101.640625 206.476562 101.480469 206.554688 101.328125 206.632812 C 101.167969 206.707031 101.027344 206.800781 100.878906 206.882812 C 100.734375 206.964844 100.589844 207.046875 100.445312 207.128906 C 100.304688 207.210938 100.160156 207.285156 100.03125 207.378906 C 99.765625 207.550781 99.507812 207.71875 99.257812 207.882812 C 99.132812 207.960938 99.015625 208.050781 98.902344 208.136719 C 98.785156 208.222656 98.671875 208.308594 98.5625 208.390625 C 98.453125 208.472656 98.34375 208.554688 98.238281 208.636719 C 98.128906 208.714844 98.027344 208.792969 97.929688 208.878906 C 97.734375 209.042969 97.550781 209.199219 97.371094 209.347656 C 97.195312 209.5 97.019531 209.640625 96.875 209.785156 C 96.570312 210.074219 96.304688 210.328125 96.070312 210.546875 C 95.847656 210.78125 95.660156 210.980469 95.511719 211.140625 C 95.207031 211.460938 95.050781 211.621094 95.050781 211.621094 " fill-opacity="1" fill-rule="nonzero"/></g></g></g><g clip-path="url(#4f5e5e00b0)"><g clip-path="url(#cb1d076ddb)"><g clip-path="url(#f5c1c81842)"><path fill="#f1f7ff" d="M 206.902344 228.757812 C 206.902344 228.757812 207.332031 228.925781 208.132812 229.246094 C 208.933594 229.558594 210.097656 230.070312 211.585938 230.648438 C 211.957031 230.796875 212.347656 230.945312 212.753906 231.113281 C 213.164062 231.277344 213.582031 231.460938 214.035156 231.625 C 214.933594 231.960938 215.898438 232.339844 216.929688 232.738281 C 217.964844 233.117188 219.066406 233.523438 220.230469 233.949219 C 221.394531 234.355469 222.621094 234.777344 223.898438 235.222656 C 224.542969 235.429688 225.199219 235.640625 225.867188 235.855469 C 226.199219 235.960938 226.535156 236.070312 226.875 236.179688 C 227.046875 236.238281 227.21875 236.292969 227.386719 236.347656 C 227.5625 236.398438 227.734375 236.449219 227.910156 236.5 C 229.304688 236.894531 230.730469 237.359375 232.21875 237.738281 C 232.585938 237.839844 232.960938 237.941406 233.335938 238.042969 C 233.710938 238.140625 234.085938 238.253906 234.46875 238.347656 C 235.234375 238.527344 236.007812 238.714844 236.789062 238.90625 C 237.179688 239 237.570312 239.105469 237.964844 239.1875 C 238.359375 239.273438 238.761719 239.359375 239.160156 239.441406 C 239.5625 239.527344 239.964844 239.613281 240.367188 239.699219 C 240.769531 239.78125 241.171875 239.882812 241.582031 239.953125 C 242.402344 240.101562 243.226562 240.253906 244.054688 240.402344 C 244.261719 240.441406 244.46875 240.480469 244.675781 240.519531 C 244.886719 240.550781 245.09375 240.582031 245.304688 240.613281 C 245.722656 240.675781 246.144531 240.738281 246.566406 240.800781 C 247.410156 240.933594 248.253906 241.074219 249.113281 241.160156 C 249.964844 241.261719 250.824219 241.363281 251.6875 241.464844 C 255.140625 241.792969 258.648438 241.964844 262.15625 241.960938 L 263.484375 241.933594 C 263.953125 241.933594 264.367188 241.910156 264.796875 241.890625 C 265.640625 241.863281 266.519531 241.800781 267.390625 241.75 C 269.125 241.613281 270.855469 241.445312 272.558594 241.214844 C 272.988281 241.160156 273.414062 241.09375 273.835938 241.03125 L 274.472656 240.9375 L 275.105469 240.828125 C 275.527344 240.757812 275.949219 240.695312 276.363281 240.613281 C 276.78125 240.535156 277.195312 240.453125 277.613281 240.375 C 278.027344 240.300781 278.441406 240.203125 278.851562 240.121094 C 279.261719 240.03125 279.671875 239.949219 280.078125 239.847656 C 280.484375 239.753906 280.886719 239.65625 281.292969 239.5625 C 281.691406 239.460938 282.09375 239.359375 282.492188 239.253906 C 282.6875 239.203125 282.886719 239.152344 283.085938 239.101562 C 283.285156 239.042969 283.480469 238.988281 283.675781 238.933594 C 284.066406 238.820312 284.460938 238.71875 284.847656 238.601562 C 285.621094 238.363281 286.390625 238.140625 287.140625 237.886719 C 288.652344 237.398438 290.105469 236.855469 291.519531 236.308594 C 294.332031 235.1875 296.941406 233.976562 299.289062 232.71875 C 299.875 232.402344 300.445312 232.085938 301.003906 231.773438 C 301.554688 231.449219 302.089844 231.128906 302.617188 230.820312 C 303.132812 230.5 303.644531 230.195312 304.128906 229.878906 C 304.613281 229.558594 305.085938 229.25 305.542969 228.953125 C 307.359375 227.734375 308.875 226.5625 310.121094 225.578125 C 310.738281 225.078125 311.296875 224.632812 311.761719 224.226562 C 312.234375 223.824219 312.640625 223.488281 312.957031 223.195312 C 313.605469 222.628906 313.949219 222.324219 313.949219 222.324219 C 313.949219 222.324219 313.890625 222.421875 313.769531 222.609375 C 313.648438 222.796875 313.472656 223.078125 313.234375 223.4375 C 313.113281 223.617188 312.988281 223.824219 312.832031 224.039062 C 312.675781 224.257812 312.507812 224.492188 312.328125 224.75 C 312.140625 225 311.953125 225.285156 311.730469 225.566406 C 311.507812 225.851562 311.273438 226.152344 311.019531 226.472656 C 310.007812 227.738281 308.714844 229.242188 307.089844 230.835938 C 306.683594 231.238281 306.25 231.632812 305.808594 232.050781 C 305.363281 232.460938 304.890625 232.863281 304.410156 233.289062 C 303.929688 233.710938 303.410156 234.117188 302.890625 234.546875 C 302.359375 234.960938 301.8125 235.378906 301.25 235.804688 C 298.972656 237.46875 296.382812 239.121094 293.503906 240.628906 C 292.0625 241.371094 290.5625 242.105469 288.984375 242.761719 C 287.417969 243.441406 285.785156 244.054688 284.101562 244.621094 C 283.679688 244.761719 283.257812 244.898438 282.832031 245.042969 C 282.402344 245.167969 281.972656 245.296875 281.539062 245.429688 C 281.109375 245.558594 280.671875 245.675781 280.234375 245.796875 C 279.792969 245.910156 279.355469 246.042969 278.910156 246.144531 C 277.136719 246.589844 275.320312 246.960938 273.480469 247.28125 C 271.640625 247.582031 269.769531 247.824219 267.886719 247.992188 C 266.945312 248.0625 266.007812 248.148438 265.035156 248.179688 C 264.554688 248.203125 264.058594 248.230469 263.613281 248.238281 L 262.207031 248.265625 C 258.421875 248.269531 254.648438 248.019531 250.964844 247.546875 C 249.132812 247.253906 247.308594 247.003906 245.539062 246.613281 C 245.09375 246.519531 244.652344 246.429688 244.210938 246.335938 C 243.988281 246.292969 243.769531 246.246094 243.550781 246.199219 C 243.332031 246.148438 243.117188 246.09375 242.898438 246.039062 C 242.03125 245.824219 241.171875 245.609375 240.316406 245.394531 C 239.890625 245.296875 239.472656 245.160156 239.054688 245.042969 C 238.640625 244.917969 238.222656 244.792969 237.808594 244.671875 C 237.398438 244.550781 236.984375 244.429688 236.574219 244.308594 C 236.167969 244.183594 235.769531 244.039062 235.367188 243.90625 C 234.570312 243.636719 233.78125 243.371094 233.003906 243.101562 C 232.230469 242.820312 231.472656 242.523438 230.726562 242.234375 C 230.355469 242.089844 229.984375 241.945312 229.613281 241.800781 L 229.339844 241.695312 L 229.070312 241.578125 C 228.890625 241.5 228.710938 241.425781 228.53125 241.347656 C 227.816406 241.042969 227.113281 240.742188 226.425781 240.4375 C 226.253906 240.363281 226.085938 240.289062 225.914062 240.210938 C 225.746094 240.132812 225.578125 240.050781 225.410156 239.972656 C 225.078125 239.816406 224.75 239.660156 224.417969 239.503906 C 223.765625 239.191406 223.121094 238.890625 222.5 238.582031 C 221.882812 238.257812 221.28125 237.941406 220.691406 237.632812 C 220.105469 237.320312 219.523438 237.03125 218.976562 236.714844 C 218.429688 236.402344 217.894531 236.09375 217.375 235.796875 C 216.855469 235.496094 216.347656 235.214844 215.871094 234.917969 C 214.914062 234.324219 214.015625 233.773438 213.199219 233.246094 C 212.382812 232.71875 211.644531 232.207031 210.980469 231.753906 C 210.648438 231.523438 210.332031 231.308594 210.039062 231.105469 C 209.742188 230.902344 209.480469 230.695312 209.226562 230.511719 C 208.722656 230.144531 208.296875 229.820312 207.953125 229.5625 C 207.269531 229.035156 206.902344 228.757812 206.902344 228.757812 " fill-opacity="1" fill-rule="nonzero"/></g></g></g><g clip-path="url(#1eaa4fc384)"><g clip-path="url(#91731fc2ce)"><g clip-path="url(#e3fdfc98a4)"><path fill="#0b5079" d="M 100.265625 214.363281 C 100.265625 214.363281 100.34375 214.347656 100.492188 214.3125 C 100.636719 214.28125 100.855469 214.230469 101.140625 214.167969 C 101.425781 214.109375 101.777344 214.03125 102.191406 213.949219 C 102.398438 213.910156 102.621094 213.867188 102.855469 213.816406 C 103.097656 213.78125 103.351562 213.738281 103.621094 213.695312 C 104.160156 213.609375 104.761719 213.523438 105.417969 213.429688 C 106.070312 213.351562 106.78125 213.289062 107.539062 213.210938 C 107.730469 213.195312 107.921875 213.167969 108.117188 213.15625 C 108.3125 213.144531 108.511719 213.132812 108.714844 213.125 C 109.121094 213.101562 109.539062 213.078125 109.964844 213.054688 C 110.179688 213.042969 110.394531 213.027344 110.617188 213.019531 C 110.835938 213.019531 111.058594 213.015625 111.28125 213.015625 C 111.734375 213.007812 112.195312 213.003906 112.664062 212.996094 C 113.136719 212.984375 113.617188 213.007812 114.109375 213.019531 C 114.597656 213.035156 115.097656 213.054688 115.609375 213.070312 C 116.117188 213.101562 116.632812 213.140625 117.15625 213.179688 C 117.417969 213.199219 117.683594 213.21875 117.949219 213.238281 C 118.21875 213.257812 118.484375 213.296875 118.753906 213.324219 C 119.292969 213.382812 119.839844 213.449219 120.390625 213.511719 C 120.945312 213.578125 121.5 213.675781 122.0625 213.761719 C 122.34375 213.804688 122.628906 213.847656 122.914062 213.894531 C 123.199219 213.933594 123.480469 214 123.765625 214.050781 C 124.339844 214.164062 124.917969 214.277344 125.496094 214.394531 C 127.8125 214.90625 130.1875 215.542969 132.554688 216.335938 C 134.914062 217.136719 137.273438 218.070312 139.574219 219.121094 C 141.867188 220.191406 144.105469 221.371094 146.25 222.628906 C 148.382812 223.898438 150.417969 225.253906 152.328125 226.632812 C 152.800781 226.984375 153.265625 227.339844 153.726562 227.6875 C 153.957031 227.863281 154.1875 228.035156 154.414062 228.210938 C 154.636719 228.390625 154.859375 228.566406 155.082031 228.746094 C 155.519531 229.101562 155.957031 229.449219 156.382812 229.804688 C 156.800781 230.164062 157.21875 230.519531 157.625 230.867188 C 157.828125 231.046875 158.03125 231.21875 158.230469 231.394531 C 158.425781 231.574219 158.621094 231.75 158.816406 231.925781 C 159.199219 232.28125 159.578125 232.628906 159.949219 232.96875 C 160.316406 233.316406 160.671875 233.664062 161.019531 234.007812 C 161.367188 234.351562 161.714844 234.675781 162.039062 235.015625 C 162.363281 235.355469 162.679688 235.683594 162.992188 236.007812 C 163.300781 236.332031 163.609375 236.640625 163.890625 236.960938 C 164.175781 237.277344 164.453125 237.585938 164.722656 237.886719 C 164.988281 238.1875 165.257812 238.472656 165.5 238.765625 C 165.988281 239.347656 166.449219 239.882812 166.867188 240.394531 C 167.277344 240.90625 167.652344 241.378906 167.984375 241.808594 C 168.148438 242.023438 168.308594 242.226562 168.457031 242.417969 C 168.601562 242.609375 168.734375 242.796875 168.859375 242.96875 C 169.109375 243.308594 169.316406 243.601562 169.484375 243.839844 C 169.65625 244.078125 169.78125 244.265625 169.867188 244.386719 C 169.953125 244.511719 169.996094 244.574219 169.996094 244.574219 C 169.996094 244.574219 169.933594 244.53125 169.8125 244.441406 C 169.6875 244.355469 169.503906 244.222656 169.269531 244.050781 C 168.796875 243.710938 168.125 243.191406 167.253906 242.550781 C 166.816406 242.230469 166.34375 241.867188 165.824219 241.480469 C 165.296875 241.101562 164.738281 240.675781 164.140625 240.230469 C 163.539062 239.792969 162.898438 239.324219 162.222656 238.828125 C 161.546875 238.339844 160.832031 237.832031 160.089844 237.296875 C 159.34375 236.773438 158.566406 236.230469 157.761719 235.667969 C 157.359375 235.390625 156.945312 235.109375 156.527344 234.824219 C 156.320312 234.683594 156.109375 234.539062 155.898438 234.390625 C 155.6875 234.25 155.46875 234.109375 155.253906 233.964844 C 154.820312 233.679688 154.382812 233.386719 153.941406 233.089844 C 153.492188 232.804688 153.042969 232.511719 152.582031 232.21875 C 152.355469 232.074219 152.125 231.925781 151.894531 231.777344 C 151.664062 231.632812 151.429688 231.488281 151.191406 231.339844 C 150.722656 231.046875 150.25 230.753906 149.769531 230.457031 C 147.84375 229.289062 145.835938 228.132812 143.769531 227.003906 C 141.695312 225.898438 139.566406 224.824219 137.40625 223.816406 C 135.242188 222.828125 133.050781 221.90625 130.863281 221.0625 C 128.671875 220.234375 126.488281 219.5 124.351562 218.832031 C 123.277344 218.527344 122.226562 218.195312 121.179688 217.929688 C 120.921875 217.863281 120.660156 217.792969 120.402344 217.722656 C 120.144531 217.65625 119.890625 217.578125 119.632812 217.523438 C 119.117188 217.398438 118.613281 217.273438 118.109375 217.15625 C 117.613281 217.023438 117.113281 216.925781 116.625 216.816406 C 116.132812 216.710938 115.648438 216.601562 115.175781 216.5 C 114.695312 216.40625 114.226562 216.316406 113.765625 216.230469 C 113.304688 216.140625 112.851562 216.042969 112.402344 215.972656 C 110.617188 215.652344 108.964844 215.402344 107.492188 215.199219 C 106.757812 215.101562 106.0625 215.019531 105.421875 214.925781 C 104.785156 214.859375 104.195312 214.796875 103.660156 214.730469 C 103.390625 214.699219 103.136719 214.667969 102.898438 214.640625 C 102.660156 214.617188 102.433594 214.597656 102.222656 214.574219 C 101.804688 214.539062 101.445312 214.5 101.15625 214.46875 C 100.867188 214.4375 100.644531 214.410156 100.496094 214.390625 C 100.34375 214.375 100.265625 214.363281 100.265625 214.363281 " fill-opacity="1" fill-rule="nonzero"/></g></g></g><g fill="#0b5079" fill-opacity="1"><g transform="translate(187.499992, 218.661358)"><g><path d="M 9.265625 -15.40625 C 9.554688 -15.40625 9.769531 -15.328125 9.90625 -15.171875 C 10.050781 -15.015625 10.125 -14.8125 10.125 -14.5625 C 10.125 -14.019531 9.835938 -13.75 9.265625 -13.75 L 3.515625 -13.75 L 3.515625 -8.3125 L 8.9375 -8.3125 C 9.226562 -8.3125 9.441406 -8.234375 9.578125 -8.078125 C 9.722656 -7.929688 9.796875 -7.734375 9.796875 -7.484375 C 9.796875 -6.941406 9.507812 -6.671875 8.9375 -6.671875 L 3.515625 -6.671875 L 3.515625 -0.65625 C 3.515625 -0.363281 3.421875 -0.144531 3.234375 0 C 3.054688 0.144531 2.84375 0.21875 2.59375 0.21875 C 2.34375 0.21875 2.125 0.144531 1.9375 0 C 1.75 -0.144531 1.65625 -0.363281 1.65625 -0.65625 L 1.65625 -14.03125 C 1.65625 -14.5 1.765625 -14.84375 1.984375 -15.0625 C 2.203125 -15.289062 2.601562 -15.40625 3.1875 -15.40625 Z M 9.265625 -15.40625 "/></g></g></g><g fill="#0b5079" fill-opacity="1"><g transform="translate(198.542029, 218.661358)"><g><path d="M 7.703125 0.21875 C 6.742188 0.21875 5.875 0.0664062 5.09375 -0.234375 C 4.3125 -0.535156 3.640625 -1.003906 3.078125 -1.640625 C 2.523438 -2.273438 2.09375 -3.09375 1.78125 -4.09375 C 1.46875 -5.101562 1.3125 -6.304688 1.3125 -7.703125 C 1.3125 -9.097656 1.46875 -10.296875 1.78125 -11.296875 C 2.09375 -12.296875 2.523438 -13.113281 3.078125 -13.75 C 3.640625 -14.394531 4.3125 -14.867188 5.09375 -15.171875 C 5.875 -15.472656 6.742188 -15.625 7.703125 -15.625 C 8.671875 -15.625 9.546875 -15.472656 10.328125 -15.171875 C 11.109375 -14.867188 11.773438 -14.394531 12.328125 -13.75 C 12.890625 -13.113281 13.328125 -12.296875 13.640625 -11.296875 C 13.953125 -10.296875 14.109375 -9.097656 14.109375 -7.703125 C 14.109375 -6.304688 13.953125 -5.101562 13.640625 -4.09375 C 13.328125 -3.09375 12.890625 -2.273438 12.328125 -1.640625 C 11.773438 -1.003906 11.109375 -0.535156 10.328125 -0.234375 C 9.546875 0.0664062 8.671875 0.21875 7.703125 0.21875 Z M 7.703125 -1.4375 C 8.390625 -1.4375 9.007812 -1.546875 9.5625 -1.765625 C 10.125 -1.992188 10.601562 -2.359375 11 -2.859375 C 11.394531 -3.367188 11.695312 -4.019531 11.90625 -4.8125 C 12.125 -5.601562 12.234375 -6.566406 12.234375 -7.703125 C 12.234375 -8.828125 12.125 -9.785156 11.90625 -10.578125 C 11.695312 -11.367188 11.394531 -12.015625 11 -12.515625 C 10.601562 -13.015625 10.125 -13.378906 9.5625 -13.609375 C 9.007812 -13.847656 8.390625 -13.96875 7.703125 -13.96875 C 7.023438 -13.96875 6.40625 -13.847656 5.84375 -13.609375 C 5.289062 -13.378906 4.816406 -13.015625 4.421875 -12.515625 C 4.023438 -12.015625 3.71875 -11.367188 3.5 -10.578125 C 3.289062 -9.785156 3.1875 -8.828125 3.1875 -7.703125 C 3.1875 -6.566406 3.289062 -5.601562 3.5 -4.8125 C 3.71875 -4.019531 4.023438 -3.367188 4.421875 -2.859375 C 4.816406 -2.359375 5.289062 -1.992188 5.84375 -1.765625 C 6.40625 -1.546875 7.023438 -1.4375 7.703125 -1.4375 Z M 7.703125 -1.4375 "/></g></g></g><g fill="#0b5079" fill-opacity="1"><g transform="translate(213.961283, 218.661358)"><g><path d="M 11.328125 -14.734375 C 11.328125 -15.035156 11.421875 -15.257812 11.609375 -15.40625 C 11.804688 -15.550781 12.03125 -15.625 12.28125 -15.625 C 12.53125 -15.625 12.742188 -15.550781 12.921875 -15.40625 C 13.109375 -15.257812 13.203125 -15.035156 13.203125 -14.734375 L 13.203125 -5.5 C 13.203125 -4.382812 13.035156 -3.457031 12.703125 -2.71875 C 12.367188 -1.988281 11.929688 -1.40625 11.390625 -0.96875 C 10.847656 -0.53125 10.226562 -0.222656 9.53125 -0.046875 C 8.832031 0.128906 8.125 0.21875 7.40625 0.21875 C 6.695312 0.21875 5.992188 0.128906 5.296875 -0.046875 C 4.609375 -0.234375 3.992188 -0.546875 3.453125 -0.984375 C 2.910156 -1.429688 2.472656 -2.019531 2.140625 -2.75 C 1.816406 -3.476562 1.65625 -4.394531 1.65625 -5.5 L 1.65625 -14.734375 C 1.65625 -15.035156 1.75 -15.257812 1.9375 -15.40625 C 2.125 -15.550781 2.34375 -15.625 2.59375 -15.625 C 2.84375 -15.625 3.054688 -15.550781 3.234375 -15.40625 C 3.421875 -15.257812 3.515625 -15.035156 3.515625 -14.734375 L 3.515625 -5.5 C 3.515625 -4.675781 3.625 -4 3.84375 -3.46875 C 4.070312 -2.945312 4.367188 -2.535156 4.734375 -2.234375 C 5.097656 -1.929688 5.515625 -1.722656 5.984375 -1.609375 C 6.453125 -1.492188 6.925781 -1.4375 7.40625 -1.4375 C 7.894531 -1.4375 8.375 -1.492188 8.84375 -1.609375 C 9.3125 -1.722656 9.726562 -1.929688 10.09375 -2.234375 C 10.457031 -2.535156 10.753906 -2.945312 10.984375 -3.46875 C 11.210938 -4 11.328125 -4.675781 11.328125 -5.5 Z M 11.328125 -14.734375 "/></g></g></g><g fill="#0b5079" fill-opacity="1"><g transform="translate(228.80864, 218.661358)"><g><path d="M 3.515625 -11.75 L 3.515625 -0.65625 C 3.515625 -0.363281 3.421875 -0.144531 3.234375 0 C 3.054688 0.144531 2.84375 0.21875 2.59375 0.21875 C 2.34375 0.21875 2.125 0.144531 1.9375 0 C 1.75 -0.144531 1.65625 -0.363281 1.65625 -0.65625 L 1.65625 -14.359375 C 1.65625 -15.203125 1.976562 -15.625 2.625 -15.625 C 2.863281 -15.625 3.066406 -15.5625 3.234375 -15.4375 C 3.410156 -15.320312 3.578125 -15.140625 3.734375 -14.890625 L 11 -3.625 L 11 -14.734375 C 11 -15.035156 11.09375 -15.257812 11.28125 -15.40625 C 11.476562 -15.550781 11.703125 -15.625 11.953125 -15.625 C 12.191406 -15.625 12.40625 -15.550781 12.59375 -15.40625 C 12.78125 -15.257812 12.875 -15.035156 12.875 -14.734375 L 12.875 -1.03125 C 12.875 -0.195312 12.550781 0.21875 11.90625 0.21875 C 11.65625 0.21875 11.441406 0.160156 11.265625 0.046875 C 11.097656 -0.0664062 10.9375 -0.25 10.78125 -0.5 Z M 3.515625 -11.75 "/></g></g></g><g fill="#0b5079" fill-opacity="1"><g transform="translate(243.326053, 218.661358)"><g><path d="M 5.703125 -15.40625 C 7.285156 -15.40625 8.566406 -15.226562 9.546875 -14.875 C 10.523438 -14.519531 11.28125 -14.003906 11.8125 -13.328125 C 12.351562 -12.648438 12.71875 -11.820312 12.90625 -10.84375 C 13.101562 -9.875 13.203125 -8.773438 13.203125 -7.546875 C 13.203125 -6.441406 13.097656 -5.425781 12.890625 -4.5 C 12.679688 -3.582031 12.3125 -2.789062 11.78125 -2.125 C 11.25 -1.457031 10.515625 -0.9375 9.578125 -0.5625 C 8.648438 -0.1875 7.453125 0 5.984375 0 L 3.1875 0 C 2.601562 0 2.203125 -0.109375 1.984375 -0.328125 C 1.765625 -0.546875 1.65625 -0.890625 1.65625 -1.359375 L 1.65625 -14.03125 C 1.65625 -14.5 1.765625 -14.84375 1.984375 -15.0625 C 2.203125 -15.289062 2.601562 -15.40625 3.1875 -15.40625 Z M 3.515625 -13.75 L 3.515625 -1.65625 L 6 -1.65625 C 7.101562 -1.65625 8 -1.789062 8.6875 -2.0625 C 9.375 -2.34375 9.910156 -2.734375 10.296875 -3.234375 C 10.691406 -3.742188 10.960938 -4.363281 11.109375 -5.09375 C 11.253906 -5.832031 11.328125 -6.648438 11.328125 -7.546875 C 11.328125 -8.578125 11.257812 -9.472656 11.125 -10.234375 C 11 -11.003906 10.734375 -11.648438 10.328125 -12.171875 C 9.921875 -12.691406 9.351562 -13.082031 8.625 -13.34375 C 7.894531 -13.613281 6.921875 -13.75 5.703125 -13.75 Z M 3.515625 -13.75 "/></g></g></g><g fill="#0b5079" fill-opacity="1"><g transform="translate(257.843467, 218.661358)"><g><path d="M 10.390625 -4.03125 L 3.921875 -4.03125 L 2.625 -0.484375 C 2.519531 -0.222656 2.367188 -0.0390625 2.171875 0.0625 C 1.984375 0.164062 1.75 0.21875 1.46875 0.21875 C 1.21875 0.21875 1.015625 0.171875 0.859375 0.078125 C 0.710938 -0.015625 0.640625 -0.164062 0.640625 -0.375 C 0.640625 -0.457031 0.660156 -0.550781 0.703125 -0.65625 L 5.8125 -14.609375 C 5.957031 -14.992188 6.128906 -15.257812 6.328125 -15.40625 C 6.535156 -15.550781 6.8125 -15.625 7.15625 -15.625 C 7.488281 -15.625 7.753906 -15.550781 7.953125 -15.40625 C 8.160156 -15.257812 8.335938 -14.992188 8.484375 -14.609375 L 13.59375 -0.65625 C 13.632812 -0.550781 13.65625 -0.457031 13.65625 -0.375 C 13.65625 -0.164062 13.578125 -0.015625 13.421875 0.078125 C 13.273438 0.171875 13.078125 0.21875 12.828125 0.21875 C 12.546875 0.21875 12.3125 0.164062 12.125 0.0625 C 11.9375 -0.0390625 11.789062 -0.222656 11.6875 -0.484375 Z M 4.515625 -5.671875 L 9.765625 -5.671875 L 7.15625 -12.828125 Z M 4.515625 -5.671875 "/></g></g></g><g fill="#0b5079" fill-opacity="1"><g transform="translate(272.140913, 218.661358)"><g><path d="M 6.859375 -13.75 L 6.859375 -0.65625 C 6.859375 -0.363281 6.765625 -0.144531 6.578125 0 C 6.398438 0.144531 6.1875 0.21875 5.9375 0.21875 C 5.6875 0.21875 5.46875 0.144531 5.28125 0 C 5.09375 -0.144531 5 -0.363281 5 -0.65625 L 5 -13.75 L 1.34375 -13.75 C 0.769531 -13.75 0.484375 -14.019531 0.484375 -14.5625 C 0.484375 -14.8125 0.550781 -15.015625 0.6875 -15.171875 C 0.832031 -15.328125 1.050781 -15.40625 1.34375 -15.40625 L 10.53125 -15.40625 C 10.832031 -15.40625 11.050781 -15.328125 11.1875 -15.171875 C 11.320312 -15.015625 11.390625 -14.8125 11.390625 -14.5625 C 11.390625 -14.019531 11.101562 -13.75 10.53125 -13.75 Z M 6.859375 -13.75 "/></g></g></g><g fill="#0b5079" fill-opacity="1"><g transform="translate(284.018792, 218.661358)"><g><path d="M 4.78125 -13.75 L 4.78125 -1.65625 L 5.921875 -1.65625 C 6.210938 -1.65625 6.425781 -1.578125 6.5625 -1.421875 C 6.707031 -1.265625 6.78125 -1.0625 6.78125 -0.8125 C 6.78125 -0.269531 6.492188 0 5.921875 0 L 1.78125 0 C 1.207031 0 0.921875 -0.269531 0.921875 -0.8125 C 0.921875 -1.0625 0.988281 -1.265625 1.125 -1.421875 C 1.269531 -1.578125 1.488281 -1.65625 1.78125 -1.65625 L 2.90625 -1.65625 L 2.90625 -13.75 L 1.78125 -13.75 C 1.207031 -13.75 0.921875 -14.019531 0.921875 -14.5625 C 0.921875 -14.8125 0.988281 -15.015625 1.125 -15.171875 C 1.269531 -15.328125 1.488281 -15.40625 1.78125 -15.40625 L 5.921875 -15.40625 C 6.210938 -15.40625 6.425781 -15.328125 6.5625 -15.171875 C 6.707031 -15.015625 6.78125 -14.8125 6.78125 -14.5625 C 6.78125 -14.019531 6.492188 -13.75 5.921875 -13.75 Z M 4.78125 -13.75 "/></g></g></g><g fill="#0b5079" fill-opacity="1"><g transform="translate(291.717415, 218.661358)"><g><path d="M 7.703125 0.21875 C 6.742188 0.21875 5.875 0.0664062 5.09375 -0.234375 C 4.3125 -0.535156 3.640625 -1.003906 3.078125 -1.640625 C 2.523438 -2.273438 2.09375 -3.09375 1.78125 -4.09375 C 1.46875 -5.101562 1.3125 -6.304688 1.3125 -7.703125 C 1.3125 -9.097656 1.46875 -10.296875 1.78125 -11.296875 C 2.09375 -12.296875 2.523438 -13.113281 3.078125 -13.75 C 3.640625 -14.394531 4.3125 -14.867188 5.09375 -15.171875 C 5.875 -15.472656 6.742188 -15.625 7.703125 -15.625 C 8.671875 -15.625 9.546875 -15.472656 10.328125 -15.171875 C 11.109375 -14.867188 11.773438 -14.394531 12.328125 -13.75 C 12.890625 -13.113281 13.328125 -12.296875 13.640625 -11.296875 C 13.953125 -10.296875 14.109375 -9.097656 14.109375 -7.703125 C 14.109375 -6.304688 13.953125 -5.101562 13.640625 -4.09375 C 13.328125 -3.09375 12.890625 -2.273438 12.328125 -1.640625 C 11.773438 -1.003906 11.109375 -0.535156 10.328125 -0.234375 C 9.546875 0.0664062 8.671875 0.21875 7.703125 0.21875 Z M 7.703125 -1.4375 C 8.390625 -1.4375 9.007812 -1.546875 9.5625 -1.765625 C 10.125 -1.992188 10.601562 -2.359375 11 -2.859375 C 11.394531 -3.367188 11.695312 -4.019531 11.90625 -4.8125 C 12.125 -5.601562 12.234375 -6.566406 12.234375 -7.703125 C 12.234375 -8.828125 12.125 -9.785156 11.90625 -10.578125 C 11.695312 -11.367188 11.394531 -12.015625 11 -12.515625 C 10.601562 -13.015625 10.125 -13.378906 9.5625 -13.609375 C 9.007812 -13.847656 8.390625 -13.96875 7.703125 -13.96875 C 7.023438 -13.96875 6.40625 -13.847656 5.84375 -13.609375 C 5.289062 -13.378906 4.816406 -13.015625 4.421875 -12.515625 C 4.023438 -12.015625 3.71875 -11.367188 3.5 -10.578125 C 3.289062 -9.785156 3.1875 -8.828125 3.1875 -7.703125 C 3.1875 -6.566406 3.289062 -5.601562 3.5 -4.8125 C 3.71875 -4.019531 4.023438 -3.367188 4.421875 -2.859375 C 4.816406 -2.359375 5.289062 -1.992188 5.84375 -1.765625 C 6.40625 -1.546875 7.023438 -1.4375 7.703125 -1.4375 Z M 7.703125 -1.4375 "/></g></g></g><g fill="#0b5079" fill-opacity="1"><g transform="translate(307.136669, 218.661358)"><g><path d="M 3.515625 -11.75 L 3.515625 -0.65625 C 3.515625 -0.363281 3.421875 -0.144531 3.234375 0 C 3.054688 0.144531 2.84375 0.21875 2.59375 0.21875 C 2.34375 0.21875 2.125 0.144531 1.9375 0 C 1.75 -0.144531 1.65625 -0.363281 1.65625 -0.65625 L 1.65625 -14.359375 C 1.65625 -15.203125 1.976562 -15.625 2.625 -15.625 C 2.863281 -15.625 3.066406 -15.5625 3.234375 -15.4375 C 3.410156 -15.320312 3.578125 -15.140625 3.734375 -14.890625 L 11 -3.625 L 11 -14.734375 C 11 -15.035156 11.09375 -15.257812 11.28125 -15.40625 C 11.476562 -15.550781 11.703125 -15.625 11.953125 -15.625 C 12.191406 -15.625 12.40625 -15.550781 12.59375 -15.40625 C 12.78125 -15.257812 12.875 -15.035156 12.875 -14.734375 L 12.875 -1.03125 C 12.875 -0.195312 12.550781 0.21875 11.90625 0.21875 C 11.65625 0.21875 11.441406 0.160156 11.265625 0.046875 C 11.097656 -0.0664062 10.9375 -0.25 10.78125 -0.5 Z M 3.515625 -11.75 "/></g></g></g></svg>